<mxfile host="65bd71144e">
    <diagram id="v2YCrG8gAtOzI71ORK04" name="ページ1">
        <mxGraphModel dx="1793" dy="1337" grid="1" gridSize="10" guides="1" tooltips="1" connect="1" arrows="1" fold="1" page="1" pageScale="1" pageWidth="827" pageHeight="1169" math="0" shadow="0">
            <root>
                <mxCell id="0"/>
                <mxCell id="1" parent="0"/>
                <mxCell id="23" value="&lt;font color=&quot;#ff0000&quot;&gt;ph1対象スコープ&lt;/font&gt;" style="rounded=0;whiteSpace=wrap;html=1;fontSize=12;fillColor=none;strokeColor=#FF6666;strokeWidth=2;verticalAlign=top;" vertex="1" parent="1">
                    <mxGeometry x="190" y="330" width="430" height="250" as="geometry"/>
                </mxCell>
                <mxCell id="2" value="&lt;p style=&quot;line-height: 120%;&quot;&gt;&lt;/p&gt;&lt;div style=&quot;&quot;&gt;リバーシ&lt;br&gt;アプリケーション&lt;/div&gt;&lt;p&gt;&lt;/p&gt;" style="whiteSpace=wrap;html=1;aspect=fixed;fillColor=none;align=center;verticalAlign=top;" vertex="1" parent="1">
                    <mxGeometry x="160" y="90" width="740" height="740" as="geometry"/>
                </mxCell>
                <mxCell id="3" value="プレイヤー" style="shape=umlActor;verticalLabelPosition=bottom;verticalAlign=top;html=1;outlineConnect=0;fillColor=none;" vertex="1" parent="1">
                    <mxGeometry x="60" y="385" width="30" height="60" as="geometry"/>
                </mxCell>
                <mxCell id="4" value="ユースケース図" style="text;strokeColor=none;fillColor=none;html=1;fontSize=24;fontStyle=1;verticalAlign=middle;align=center;" vertex="1" parent="1">
                    <mxGeometry x="10" y="20" width="200" height="40" as="geometry"/>
                </mxCell>
                <mxCell id="7" value="対戦する" style="ellipse;whiteSpace=wrap;html=1;fontSize=12;fillColor=none;" vertex="1" parent="1">
                    <mxGeometry x="230" y="375" width="120" height="80" as="geometry"/>
                </mxCell>
                <mxCell id="8" value="" style="endArrow=none;html=1;fontSize=12;exitX=0.5;exitY=0.5;exitDx=0;exitDy=0;exitPerimeter=0;entryX=0;entryY=0.5;entryDx=0;entryDy=0;" edge="1" parent="1" source="3" target="7">
                    <mxGeometry width="50" height="50" relative="1" as="geometry">
                        <mxPoint x="420" y="380" as="sourcePoint"/>
                        <mxPoint x="470" y="330" as="targetPoint"/>
                    </mxGeometry>
                </mxCell>
                <mxCell id="9" value="・対戦開始&lt;br&gt;・盤面確認&lt;br&gt;・石を打つ&lt;br&gt;・勝敗確認" style="shape=note;whiteSpace=wrap;html=1;backgroundOutline=1;darkOpacity=0.05;fontSize=12;fillColor=#ffe6cc;align=left;strokeColor=#d79b00;" vertex="1" parent="1">
                    <mxGeometry x="395" y="200" width="100" height="80" as="geometry"/>
                </mxCell>
                <mxCell id="10" value="" style="endArrow=none;dashed=1;html=1;fontSize=12;exitX=1;exitY=0;exitDx=0;exitDy=0;entryX=0.333;entryY=1.048;entryDx=0;entryDy=0;entryPerimeter=0;" edge="1" parent="1" source="7" target="9">
                    <mxGeometry width="50" height="50" relative="1" as="geometry">
                        <mxPoint x="420" y="400" as="sourcePoint"/>
                        <mxPoint x="470" y="350" as="targetPoint"/>
                    </mxGeometry>
                </mxCell>
                <mxCell id="11" value="自ユーザーの&lt;br&gt;対戦履歴を確認する" style="ellipse;whiteSpace=wrap;html=1;fontSize=12;fillColor=none;" vertex="1" parent="1">
                    <mxGeometry x="230" y="490" width="120" height="80" as="geometry"/>
                </mxCell>
                <mxCell id="12" value="" style="endArrow=none;html=1;fontSize=12;exitX=0.5;exitY=0.5;exitDx=0;exitDy=0;exitPerimeter=0;entryX=0;entryY=0.5;entryDx=0;entryDy=0;" edge="1" parent="1" source="3" target="11">
                    <mxGeometry width="50" height="50" relative="1" as="geometry">
                        <mxPoint x="420" y="440" as="sourcePoint"/>
                        <mxPoint x="470" y="390" as="targetPoint"/>
                    </mxGeometry>
                </mxCell>
                <mxCell id="13" value="1デバイスで交互に&lt;br&gt;打つ" style="ellipse;whiteSpace=wrap;html=1;fontSize=12;fillColor=none;" vertex="1" parent="1">
                    <mxGeometry x="470" y="340" width="120" height="80" as="geometry"/>
                </mxCell>
                <mxCell id="14" value="CPUと対戦する" style="ellipse;whiteSpace=wrap;html=1;fontSize=12;fillColor=none;" vertex="1" parent="1">
                    <mxGeometry x="650" y="505" width="120" height="80" as="geometry"/>
                </mxCell>
                <mxCell id="15" value="PvPで対戦する" style="ellipse;whiteSpace=wrap;html=1;fontSize=12;fillColor=none;" vertex="1" parent="1">
                    <mxGeometry x="650" y="420" width="120" height="80" as="geometry"/>
                </mxCell>
                <mxCell id="16" value="プレイヤーの&lt;br&gt;ランキングを&lt;br&gt;確認する" style="ellipse;whiteSpace=wrap;html=1;fontSize=12;fillColor=none;" vertex="1" parent="1">
                    <mxGeometry x="230" y="620" width="120" height="80" as="geometry"/>
                </mxCell>
                <mxCell id="17" value="" style="endArrow=none;html=1;fontSize=12;exitX=0.5;exitY=0.5;exitDx=0;exitDy=0;exitPerimeter=0;entryX=0;entryY=0.5;entryDx=0;entryDy=0;" edge="1" parent="1" source="3" target="16">
                    <mxGeometry width="50" height="50" relative="1" as="geometry">
                        <mxPoint x="420" y="580" as="sourcePoint"/>
                        <mxPoint x="470" y="530" as="targetPoint"/>
                    </mxGeometry>
                </mxCell>
                <mxCell id="20" value="Extends" style="endArrow=block;endSize=16;endFill=0;html=1;exitX=0;exitY=0.5;exitDx=0;exitDy=0;entryX=1;entryY=0.5;entryDx=0;entryDy=0;" edge="1" parent="1" source="13" target="7">
                    <mxGeometry width="160" relative="1" as="geometry">
                        <mxPoint x="594.7110450857544" y="524.7729853398471" as="sourcePoint"/>
                        <mxPoint x="385.2709717866859" y="345.23226153144503" as="targetPoint"/>
                        <Array as="points"/>
                    </mxGeometry>
                </mxCell>
                <mxCell id="21" value="Extends" style="endArrow=block;endSize=16;endFill=0;html=1;entryX=0.986;entryY=0.703;entryDx=0;entryDy=0;exitX=0;exitY=0.5;exitDx=0;exitDy=0;entryPerimeter=0;" edge="1" parent="1" source="14" target="7">
                    <mxGeometry width="160" relative="1" as="geometry">
                        <mxPoint x="498" y="597" as="sourcePoint"/>
                        <mxPoint x="360" y="425" as="targetPoint"/>
                        <Array as="points"/>
                    </mxGeometry>
                </mxCell>
                <mxCell id="22" value="Extends" style="endArrow=block;endSize=16;endFill=0;html=1;exitX=0;exitY=0.5;exitDx=0;exitDy=0;entryX=1.018;entryY=0.584;entryDx=0;entryDy=0;entryPerimeter=0;" edge="1" parent="1" source="15" target="7">
                    <mxGeometry width="160" relative="1" as="geometry">
                        <mxPoint x="507.57359312880703" y="606.7157287525381" as="sourcePoint"/>
                        <mxPoint x="342.42640687119297" y="453.28427124746213" as="targetPoint"/>
                        <Array as="points"/>
                    </mxGeometry>
                </mxCell>
                <mxCell id="24" value="会員登録" style="ellipse;whiteSpace=wrap;html=1;fontSize=12;fillColor=none;" vertex="1" parent="1">
                    <mxGeometry x="230" y="140" width="120" height="80" as="geometry"/>
                </mxCell>
                <mxCell id="26" value="ログイン" style="ellipse;whiteSpace=wrap;html=1;fontSize=12;fillColor=none;" vertex="1" parent="1">
                    <mxGeometry x="230" y="240" width="120" height="80" as="geometry"/>
                </mxCell>
                <mxCell id="27" value="" style="endArrow=none;html=1;fontSize=12;fontColor=#FF0000;entryX=0;entryY=0.5;entryDx=0;entryDy=0;" edge="1" parent="1" target="24">
                    <mxGeometry width="50" height="50" relative="1" as="geometry">
                        <mxPoint x="80" y="410" as="sourcePoint"/>
                        <mxPoint x="210" y="190" as="targetPoint"/>
                    </mxGeometry>
                </mxCell>
                <mxCell id="29" value="" style="endArrow=none;html=1;fontSize=12;fontColor=#FF0000;exitX=0.5;exitY=0.5;exitDx=0;exitDy=0;exitPerimeter=0;" edge="1" parent="1" source="3">
                    <mxGeometry width="50" height="50" relative="1" as="geometry">
                        <mxPoint x="190" y="340" as="sourcePoint"/>
                        <mxPoint x="230" y="280" as="targetPoint"/>
                    </mxGeometry>
                </mxCell>
                <mxCell id="30" value="リアルタイム通信" style="shape=note;whiteSpace=wrap;html=1;backgroundOutline=1;darkOpacity=0.05;fontSize=12;fillColor=#ffe6cc;align=left;strokeColor=#d79b00;" vertex="1" parent="1">
                    <mxGeometry x="760" y="330" width="100" height="50" as="geometry"/>
                </mxCell>
                <mxCell id="31" value="" style="endArrow=none;dashed=1;html=1;fontSize=12;fontColor=#FF0000;entryX=0.5;entryY=1;entryDx=0;entryDy=0;entryPerimeter=0;exitX=1;exitY=0;exitDx=0;exitDy=0;" edge="1" parent="1" source="15" target="30">
                    <mxGeometry width="50" height="50" relative="1" as="geometry">
                        <mxPoint x="570" y="520" as="sourcePoint"/>
                        <mxPoint x="620" y="470" as="targetPoint"/>
                    </mxGeometry>
                </mxCell>
                <mxCell id="36" value="&lt;ul&gt;&lt;li&gt;アクター&lt;/li&gt;&lt;ul&gt;&lt;li&gt;アクターは、システムの一部ではない。システムのユーザが果たす役割を表す。&lt;/li&gt;&lt;li&gt;システムと活発に情報交換をしたり、システムから受動的に情報を受け取ったりする。&lt;/li&gt;&lt;li&gt;人間、ハードウェア、外部システムがアクターになりえる。&lt;/li&gt;&lt;/ul&gt;&lt;li&gt;ユースケース&lt;/li&gt;&lt;ul&gt;&lt;li&gt;ユースケースは、アクターとシステムとの間の対話をモデル化する。&lt;/li&gt;&lt;li&gt;ユースケースはアクターによって開始され、システムのある機能を実行する。&lt;/li&gt;&lt;li&gt;システムのユーザがシステムを利用して遂行する単位業務のひとつを抽象化したもの。&lt;/li&gt;&lt;li&gt;ユースケースをすべて集めると、システムがどう使われるかがすべて表わされる。&lt;/li&gt;&lt;li&gt;ユースケースの視点で、分析モデル、設計モデル、実装モデル、テストモデルを関連付けて管理できる。&lt;/li&gt;&lt;li&gt;ユースケースのドキュメントとして、「概要」と「イベントフロー」がある。&lt;/li&gt;&lt;/ul&gt;&lt;/ul&gt;" style="text;strokeColor=none;fillColor=none;html=1;whiteSpace=wrap;verticalAlign=middle;overflow=hidden;" vertex="1" parent="1">
                    <mxGeometry x="960" y="280" width="600" height="270" as="geometry"/>
                </mxCell>
            </root>
        </mxGraphModel>
    </diagram>
</mxfile>